nColumns=19
nRows=41
DataType=double
version=3
OpenSimVersion=4.1
endheader
time	ground_force_1_vx	ground_force_1_vy	ground_force_1_vz	ground_force_1_px	ground_force_1_py	ground_force_1_pz	ground_force_1_mx	ground_force_1_my	ground_force_1_mz	ground_force_2_vx	ground_force_2_vy	ground_force_2_vz	ground_force_2_px	ground_force_2_py	ground_force_2_pz	ground_force_2_mx	ground_force_2_my	ground_force_2_mz
3.98	0	0	0	-0.000901693	0	-0.000108431	0	0	0	74.3674	115.284	-12.9222	0.330142	0	-0.423411	-0	7.38141	-0
3.99	0	0	0	-0.000901512	0	-0.000108415	0	0	0	26.5043	38.8328	-10.3216	0.324018	0	-0.428149	-0	5.30171	-0
4	0	0	0	-0.00090133	0	-0.000108399	0	0	0	6.74894	17.5321	-3.9263	0.627839	0	-0.295916	-0	2.91862	-0
4.01	0	0	0	-0.000901149	0	-0.000108383	0	0	0	-2.23753	10.2084	0.438078	1.07567	0	-0.128298	-0	0.939092	-0
4.02	0	0	0	-0.000900969	0	-0.000108368	0	0	0	0	0	0	-0.000900386	0	-0.00010836	0	0	0
4.03	0	0	0	-0.000900789	0	-0.000108352	0	0	0	0	0	0	-0.000900208	0	-0.000108345	0	0	0
4.04	0	0	0	-0.000900609	0	-0.000108336	0	0	0	0	0	0	-0.00090003	0	-0.00010833	0	0	0
4.05	0	0	0	-0.00090043	0	-0.000108321	0	0	0	0	0	0	-0.000899853	0	-0.000108314	0	0	0
4.06	0	0	0	-0.000900252	0	-0.000108305	0	0	0	0	0	0	-0.000899676	0	-0.000108299	0	0	0
4.07	0	0	0	-0.000900074	0	-0.000108289	0	0	0	0	0	0	-0.0008995	0	-0.000108284	0	0	0
4.08	0	0	0	-0.000899897	0	-0.000108274	0	0	0	0	0	0	-0.000899324	0	-0.000108269	0	0	0
4.09	-7.8583	22.361	-6.39309	0.849155	0	-0.202192	-0	2.67676	-0	0	0	0	-0.00089915	0	-0.000108254	0	0	0
4.1	-32.1941	91.99	-16.0099	0.909476	0	-0.248265	-0	3.72445	-0	0	0	0	-0.000898975	0	-0.000108238	0	0	0
4.11	-87.9983	308.451	-29.232	0.920906	0	-0.258515	-0	4.35508	-0	0	0	0	-0.000898802	0	-0.000108223	0	0	0
4.12	-160.937	721.126	-37.961	0.916637	0	-0.263726	-0	4.23645	-0	0	0	0	-0.000898629	0	-0.000108208	0	0	0
4.13	-202.064	1179.25	-32.4589	0.896158	0	-0.26996	-0	3.38713	-0	0	0	0	-0.000898457	0	-0.000108194	0	0	0
4.14	-233.852	1490.5	-13.6055	0.867988	0	-0.275106	-0	2.33786	-0	0	0	0	-0.000898285	0	-0.000108179	0	0	0
4.15	-292.857	1664.58	0.449213	0.840011	0	-0.277557	-0	1.94079	-0	0	0	0	-0.000898115	0	-0.000108164	0	0	0
4.16	-310.334	1825.68	-7.73849	0.806532	0	-0.279068	-0	2.87673	-0	0	0	0	-0.000897945	0	-0.000108149	0	0	0
4.17	-254.882	2022.54	-32.0056	0.767598	0	-0.279562	-0	5.22211	-0	0	0	0	-0.000897776	0	-0.000108135	0	0	0
4.18	-178.06	2192.71	-54.0456	0.731506	0	-0.277506	-0	8.41607	-0	0	0	0	-0.000897608	0	-0.00010812	0	0	0
4.19	-107.002	2268.7	-69.9064	0.697692	0	-0.274601	-0	11.5699	-0	0	0	0	-0.000897441	0	-0.000108106	0	0	0
4.2	-33.317	2243.56	-83.0485	0.66162	0	-0.272997	-0	13.8206	-0	0	0	0	-0.000897274	0	-0.000108091	0	0	0
4.21	43.4394	2141.76	-86.4399	0.623469	0	-0.271813	-0	14.5983	-0	0	0	0	-0.000897109	0	-0.000108077	0	0	0
4.22	129.82	1975.98	-74.94	0.582942	0	-0.270077	-0	13.8065	-0	0	0	0	-0.000896945	0	-0.000108063	0	0	0
4.23	228.813	1742.06	-58.2375	0.538245	0	-0.268964	-0	11.8107	-0	0	0	0	-0.000896781	0	-0.000108049	0	0	0
4.24	304.22	1447.02	-45.6212	0.491291	0	-0.269172	-0	9.20021	-0	0	0	0	-0.000896619	0	-0.000108035	0	0	0
4.25	325.418	1113.19	-34.7239	0.444704	0	-0.269176	-0	6.52065	-0	0	0	0	-0.000896458	0	-0.000108021	0	0	0
4.26	292.154	772.324	-22.5715	0.40134	0	-0.26717	-0	4.15887	-0	0	0	0	-0.000896297	0	-0.000108007	0	0	0
4.27	214.742	469.428	-12.3379	0.368845	0	-0.26369	-0	2.34172	-0	0	0	0	-0.000896138	0	-0.000107993	0	0	0
4.28	122.622	243.397	-5.86532	0.360364	0	-0.259648	-0	1.14558	-0	0	0	0	-0.00089598	0	-0.000107979	0	0	0
4.29	52.073	103.085	-1.04642	0.378635	0	-0.25082	-0	0.511937	-0	0	0	0	-0.000895824	0	-0.000107966	0	0	0
4.3	16.4301	36.5808	2.52035	0.463888	0	-0.221899	-0	0.286798	-0	0	0	0	-0.000895668	0	-0.000107952	0	0	0
4.31	4.56759	12.8129	3.1827	0.662577	0	-0.17156	-0	0.266897	-0	0	0	0	-0.000895514	0	-0.000107939	0	0	0
4.32	0	0	0	-0.000895894	0	-0.000107924	0	0	0	0	0	0	-0.00089536	0	-0.000107926	0	0	0
4.33	0	0	0	-0.000895741	0	-0.000107911	0	0	0	0	0	0	-0.000895208	0	-0.000107913	0	0	0
4.34	0	0	0	-0.000895589	0	-0.000107898	0	0	0	0	0	0	-0.000895058	0	-0.0001079	0	0	0
4.35	0	0	0	-0.000895438	0	-0.000107884	0	0	0	0	0	0	-0.000894908	0	-0.000107887	0	0	0
4.36	0	0	0	-0.000895288	0	-0.000107871	0	0	0	0	0	0	-0.00089476	0	-0.000107874	0	0	0
4.37	0	0	0	-0.00089514	0	-0.000107858	0	0	0	0	0	0	-0.000894614	0	-0.000107861	0	0	0
4.38	0	0	0	-0.000894993	0	-0.000107846	0	0	0	0	0	0	-0.000894468	0	-0.000107849	0	0	0
